<?xml version="1.0" standalone="no"?>
<!DOCTYPE svg PUBLIC "-//W3C//DTD SVG 20010904//EN"
 "http://www.w3.org/TR/2001/REC-SVG-20010904/DTD/svg10.dtd">
<svg version="1.0" xmlns="http://www.w3.org/2000/svg"
 width="500.000000pt" height="500.000000pt" viewBox="0 0 500.000000 500.000000"
 preserveAspectRatio="xMidYMid meet">
<metadata>
Created by potrace 1.11, written by Peter Selinger 2001-2013
</metadata>
<g transform="translate(0.000000,500.000000) scale(0.100000,-0.100000)"
fill="#000000" stroke="none">
<path d="M2309 4995 c-2 -1 -35 -6 -73 -9 -38 -3 -86 -8 -105 -12 -227 -38
-411 -86 -589 -155 -109 -43 -384 -179 -413 -205 -8 -8 -19 -14 -22 -14 -8 0
-115 -74 -202 -138 -151 -113 -306 -262 -439 -422 -77 -92 -85 -106 -71 -116
14 -11 26 -1 82 69 81 102 293 313 393 392 305 243 652 412 1033 504 120 29
151 35 245 47 26 3 58 8 72 10 52 10 459 12 540 3 517 -56 985 -248 1381 -566
119 -96 294 -270 389 -386 59 -72 79 -86 87 -61 9 28 -243 305 -396 433 -317
268 -689 458 -1086 555 -117 29 -128 31 -303 55 -115 16 -511 28 -523 16z"/>
<path d="M2292 4791 c-10 -6 -12 -30 -6 -102 3 -52 8 -97 10 -101 7 -11 -17
-21 -26 -12 -5 5 -12 52 -16 104 -7 102 -11 114 -38 104 -12 -5 -15 -14 -11
-38 2 -17 7 -62 10 -101 7 -85 24 -115 65 -115 37 0 61 33 55 75 -2 17 -6 63
-9 104 -5 77 -13 95 -34 82z"/>
<path d="M2399 4779 c-17 -33 -23 -138 -10 -187 18 -64 72 -76 101 -21 15 28
14 163 -2 196 -18 38 -71 45 -89 12z m55 -35 c9 -25 7 -147 -4 -164 -8 -12
-10 -12 -15 2 -6 16 -10 96 -7 151 2 30 16 36 26 11z"/>
<path d="M2540 4781 c0 -11 7 -21 17 -23 14 -2 16 -15 14 -83 -1 -44 -4 -92
-5 -107 -3 -27 12 -42 32 -29 6 3 12 44 13 96 2 107 6 125 25 118 9 -3 14 2
14 16 0 12 -3 21 -7 22 -5 1 -29 3 -55 5 -42 3 -48 2 -48 -15z"/>
<path d="M2709 4782 c0 -4 -2 -14 -3 -22 -2 -8 -6 -42 -10 -75 -3 -33 -9 -81
-12 -106 l-6 -46 38 -6 c58 -10 64 -9 64 13 0 15 -7 20 -25 20 -22 0 -25 4
-25 40 0 36 3 40 25 40 31 0 34 29 4 37 -32 9 -22 57 13 61 28 3 46 30 25 37
-28 8 -87 13 -88 7z"/>
<path d="M2050 4755 c-15 -18 -15 -111 1 -168 14 -51 52 -91 76 -79 10 5 23 7
30 5 14 -5 26 13 18 27 -3 6 -8 38 -9 73 -2 36 -12 83 -24 110 -18 41 -25 47
-50 47 -16 0 -35 -7 -42 -15z m55 -44 c3 -11 7 -28 9 -38 2 -10 6 -35 10 -56
5 -27 3 -42 -8 -52 -12 -13 -16 -6 -26 58 -6 39 -13 77 -15 84 -2 6 -1 14 2
17 11 11 22 6 28 -13z"/>
<path d="M2862 4747 c-22 -26 -20 -65 4 -113 14 -27 23 -58 22 -68 -4 -27 -28
-33 -28 -7 0 14 -6 21 -20 21 -15 0 -20 -7 -20 -24 0 -53 65 -76 94 -34 22 32
20 71 -8 126 -24 47 -22 83 3 68 6 -4 9 -12 5 -18 -4 -6 3 -8 17 -6 25 3 28
30 7 56 -14 16 -63 16 -76 -1z"/>
<path d="M1813 4709 c-35 -13 -41 -35 -28 -103 13 -73 41 -133 66 -146 18 -10
68 2 70 17 8 53 -9 123 -30 123 -26 0 -42 -15 -35 -33 3 -9 10 -15 14 -12 4 3
10 -9 12 -26 8 -49 -20 -45 -35 6 -31 109 -34 125 -25 131 6 4 15 -1 20 -10
10 -18 17 -19 37 -7 11 7 10 13 -4 34 -20 31 -34 37 -62 26z"/>
<path d="M3117 4703 c-3 -5 -10 -26 -16 -48 -6 -22 -22 -74 -35 -117 -23 -73
-23 -76 -5 -81 15 -4 21 5 34 49 9 30 17 54 19 54 2 0 2 -28 -1 -62 l-5 -63
19 30 c10 17 25 42 32 57 21 41 23 28 5 -25 -16 -47 -14 -77 5 -77 6 0 28 55
49 123 38 119 39 122 19 130 -11 4 -21 6 -22 5 -1 -2 -16 -29 -34 -60 -31 -55
-45 -73 -36 -45 13 40 15 121 3 129 -16 10 -26 10 -31 1z"/>
<path d="M1673 4664 c-8 -4 -6 -20 7 -60 10 -30 18 -54 16 -54 -1 0 -17 20
-35 45 -19 27 -40 45 -52 45 -24 0 -24 -1 7 -85 14 -39 33 -91 42 -117 17 -51
19 -53 41 -39 11 7 10 19 -8 66 -12 32 -19 60 -16 63 3 3 5 1 5 -5 0 -5 9 -21
21 -34 11 -13 28 -34 38 -47 11 -15 22 -21 33 -17 15 6 14 13 -9 73 -14 37
-34 91 -45 120 -19 52 -22 55 -45 46z"/>
<path d="M3282 4525 c-34 -58 -62 -110 -62 -114 0 -5 9 -11 20 -14 11 -3 20 0
20 6 0 22 17 38 33 31 12 -4 14 -11 7 -29 -10 -26 -5 -35 19 -35 22 0 76 240
58 252 -24 16 -34 5 -95 -97z m45 -20 c-6 -19 -14 -35 -19 -35 -11 0 -10 7 7
40 21 40 26 38 12 -5z"/>
<path d="M1496 4592 c-3 -5 10 -45 29 -88 75 -167 68 -156 87 -142 16 12 14
21 -31 123 -44 101 -69 132 -85 107z"/>
<path d="M3474 4568 c-15 -25 -104 -210 -104 -217 0 -10 46 -31 70 -31 50 0
134 164 108 212 -13 26 -65 51 -74 36z m12 -135 c-24 -49 -52 -80 -61 -71 -3
3 14 43 37 89 36 71 43 80 46 57 2 -14 -8 -48 -22 -75z"/>
<path d="M1388 4542 c-40 -22 -46 -28 -37 -44 8 -15 13 -17 24 -8 11 9 24 -7
65 -91 46 -91 53 -100 67 -87 13 14 10 26 -31 109 -41 81 -45 95 -32 105 13 9
13 14 3 27 -11 14 -17 13 -59 -11z"/>
<path d="M3562 4389 c-34 -62 -61 -113 -60 -114 40 -25 82 -44 89 -40 15 10
10 26 -12 44 -21 17 -21 17 -2 48 15 26 22 29 37 21 25 -14 40 10 20 33 -12
13 -13 21 -3 42 11 25 13 25 39 12 25 -13 29 -13 34 2 4 9 1 20 -6 25 -17 11
-66 38 -70 38 -2 0 -31 -50 -66 -111z"/>
<path d="M1273 4482 c-13 -8 -7 -25 32 -87 l19 -30 -25 21 c-13 11 -35 30 -48
42 -27 24 -31 25 -48 14 -8 -5 7 -39 51 -114 73 -126 70 -122 90 -111 13 7 11
17 -19 66 -19 32 -35 60 -35 63 0 2 21 -16 48 -41 44 -42 82 -58 82 -35 0 5
-24 49 -53 97 -29 48 -56 96 -60 106 -7 19 -15 21 -34 9z"/>
<path d="M2437 4404 c-1 -1 -49 -4 -107 -8 -147 -10 -192 -17 -340 -51 -130
-30 -257 -77 -404 -149 -149 -73 -366 -213 -366 -236 0 -9 2490 -6 2491 3 1
17 -171 135 -294 201 -154 83 -368 162 -514 191 -115 23 -204 36 -275 41 -85
5 -188 10 -191 8z m114 -43 c24 -1 26 -4 25 -43 l-1 -42 -98 0 c-55 -1 -103 1
-107 4 -8 5 -13 32 -11 62 1 23 17 25 192 19z m-414 -51 c1 -11 -6 -23 -15
-28 -19 -8 -189 -8 -198 0 -3 3 26 13 63 21 140 33 148 33 150 7z m785 -1 c49
-12 87 -23 84 -27 -3 -3 -50 -5 -103 -5 l-98 -1 -3 27 c-4 33 2 34 120 6z
m-1006 -135 c0 -54 -1 -104 -4 -111 -2 -8 -33 -12 -95 -11 -133 0 -126 2 -124
-29 l2 -28 -110 0 -110 0 2 28 c2 27 -4 31 -42 28 -19 -2 -18 0 4 19 21 18 48
19 36 0 -3 -4 1 -10 8 -12 10 -4 150 -3 199 1 14 1 16 11 14 65 -3 70 -1 78
30 94 34 18 168 62 179 58 6 -1 10 -45 11 -102z m440 0 c0 -55 3 -105 6 -110
4 -5 53 -9 110 -9 l103 0 3 113 3 113 107 -3 107 -3 0 -107 c0 -65 4 -109 10
-109 6 -1 55 -2 110 -3 l100 -1 3 -30 3 -30 -108 0 -108 0 -3 28 c-4 30 2 29
-126 29 -91 1 -108 -7 -99 -41 4 -14 -9 -16 -106 -16 l-111 0 0 27 c0 16 -3
28 -7 29 -57 6 -213 2 -214 -6 -1 -5 -2 -19 -2 -30 0 -19 -7 -20 -108 -20 -60
0 -109 3 -110 7 -8 55 -11 53 104 53 126 -1 117 -11 114 133 l-2 93 110 -3
110 -3 1 -101z m799 65 l86 -31 -3 -77 -3 -76 -107 -1 -108 -2 0 115 0 115 25
-6 c14 -4 63 -20 110 -37z m344 -168 l23 -18 -31 -1 c-24 0 -31 4 -31 19 0 24
8 24 39 0z m-44 -46 l0 -30 -107 0 -108 0 0 30 0 30 108 0 107 0 0 -30z"/>
<path d="M1114 4376 c-5 -13 123 -215 136 -215 3 -1 12 3 20 8 11 8 1 29 -55
115 -68 102 -90 122 -101 92z"/>
<path d="M3784 4268 c-37 -51 -71 -98 -76 -104 -13 -17 69 -71 84 -56 9 9 7
17 -9 34 l-22 21 20 29 c16 22 24 26 38 18 28 -14 45 9 24 32 -16 18 -15 20 4
39 17 18 24 19 43 9 18 -10 24 -9 31 1 10 16 0 28 -39 52 l-30 17 -68 -92z"/>
<path d="M993 4293 c-13 -8 -23 -20 -23 -25 0 -18 142 -198 156 -198 27 0 25
23 -5 60 -43 54 -39 59 15 15 40 -33 47 -36 60 -23 13 13 10 19 -29 51 -25 20
-48 49 -52 64 -15 64 -73 90 -122 56z m71 -45 c14 -20 13 -38 -2 -38 -4 0 -16
14 -25 30 -15 25 -16 30 -3 30 8 0 22 -10 30 -22z"/>
<path d="M3909 4169 c-52 -45 -96 -83 -98 -85 -2 -2 2 -11 9 -19 12 -14 15
-14 35 5 18 16 24 18 33 8 7 -9 6 -18 -4 -32 -10 -14 -11 -23 -3 -33 16 -18
28 -16 37 5 4 9 31 56 60 104 56 93 59 100 39 117 -11 8 -35 -7 -108 -70z m36
-29 c-9 -16 -20 -30 -26 -30 -11 0 -5 13 20 42 22 26 24 22 6 -12z"/>
<path d="M866 4185 c-27 -23 -28 -26 -13 -47 9 -13 47 -57 85 -98 61 -66 71
-73 86 -61 14 12 13 17 -19 49 -37 39 -41 47 -25 57 21 13 10 66 -19 96 -36
35 -57 36 -95 4z m66 -32 c10 -9 18 -25 18 -36 0 -19 -2 -18 -30 8 -16 15 -27
32 -24 37 8 12 15 10 36 -9z"/>
<path d="M4065 4120 c-18 -19 -28 -42 -31 -76 -7 -57 -19 -84 -39 -84 -18 0
-19 12 -3 28 10 10 10 15 -2 22 -21 14 -32 8 -43 -24 -11 -33 13 -66 50 -66
26 0 73 43 74 69 1 19 7 57 14 89 7 29 36 30 32 0 -3 -29 29 -37 38 -9 10 32
-3 58 -34 69 -25 9 -32 7 -56 -18z"/>
<path d="M4170 3997 c-19 -34 -55 -81 -80 -104 -39 -38 -43 -44 -30 -57 13
-13 20 -11 55 20 22 20 70 51 108 70 37 19 67 37 67 40 0 2 -6 11 -12 18 -11
11 -21 8 -57 -17 -45 -31 -46 -26 -4 29 22 29 22 32 5 47 -16 15 -19 12 -52
-46z"/>
<path d="M1141 3851 c-10 -6 -12 -17 -6 -37 9 -37 10 -77 2 -98 -6 -15 -9 -15
-34 3 -40 29 -86 34 -156 16 -171 -44 -381 -249 -470 -458 -24 -58 -30 -87
-31 -147 -1 -102 27 -154 104 -193 50 -25 61 -27 140 -23 124 7 225 45 313
118 41 34 47 37 47 19 0 -35 22 -69 51 -81 51 -22 117 1 189 66 14 12 42 24
63 26 34 4 37 2 37 -20 0 -29 30 -82 46 -82 6 0 16 10 21 23 17 36 107 143
201 237 72 72 79 77 48 35 -74 -102 -101 -157 -101 -207 0 -35 6 -53 22 -69
l22 -22 14 36 c39 93 123 193 227 269 46 34 46 28 -2 -33 -54 -70 -90 -150
-85 -192 5 -40 31 -77 54 -77 22 0 75 27 111 56 l32 27 -40 -69 c-66 -113 -71
-152 -25 -197 15 -16 20 -10 69 86 101 198 256 416 329 462 21 13 30 15 41 6
19 -16 9 -49 -49 -159 -41 -77 -52 -90 -83 -101 -71 -25 -103 -51 -100 -80 3
-23 8 -26 45 -29 49 -4 105 22 163 75 22 19 65 50 95 68 l55 34 -7 -27 c-4
-15 -6 -45 -6 -67 1 -46 38 -85 80 -85 42 0 111 41 186 110 39 36 67 56 62 45
-5 -11 -10 -39 -13 -63 -3 -35 0 -48 19 -68 43 -46 89 -28 189 70 l55 55 -3
-49 c-3 -42 0 -53 22 -75 46 -46 77 -34 185 69 43 41 61 54 57 39 -14 -44 -14
-59 -1 -90 15 -35 48 -49 90 -39 14 4 56 35 93 71 l69 65 0 -40 c0 -21 7 -50
17 -64 36 -56 93 -41 189 53 32 31 55 48 51 38 -18 -47 25 -127 69 -127 40 1
288 210 365 308 62 80 66 149 9 212 -41 46 -122 85 -152 74 -25 -10 -17 -24
13 -24 34 0 78 -40 87 -78 9 -44 -21 -118 -82 -203 -76 -107 -214 -242 -230
-225 -6 6 7 29 87 154 62 96 67 133 25 170 -43 36 -61 29 -79 -30 -21 -72
-141 -224 -230 -289 -69 -51 -76 -11 -14 89 84 137 91 151 84 184 -7 35 -32
68 -51 68 -7 0 -20 -21 -30 -46 -33 -87 -256 -331 -290 -318 -24 10 -2 54 143
296 l107 178 45 0 c63 0 114 -16 142 -45 28 -30 38 -31 38 -6 0 47 -98 114
-154 105 -31 -4 -36 4 -22 39 7 17 12 38 10 45 -1 6 -2 19 -3 27 -1 19 -45 65
-61 65 -6 0 -13 -8 -17 -17 -18 -55 -68 -153 -77 -154 -12 0 -378 0 -385 1 -2
0 2 7 9 15 7 9 14 36 14 61 1 38 -4 50 -28 70 -35 31 -45 28 -60 -16 -19 -53
-57 -130 -68 -136 -5 -3 -48 -6 -96 -7 -72 0 -95 4 -130 22 -51 26 -63 21 -40
-17 24 -40 64 -56 151 -60 42 -2 77 -6 77 -7 0 -11 -119 -207 -149 -245 -77
-99 -224 -214 -266 -208 -31 5 -25 40 10 58 165 83 248 216 179 285 -35 35
-107 0 -199 -96 -79 -82 -102 -103 -134 -122 l-30 -18 23 51 c29 63 30 148 2
179 -28 31 -78 27 -131 -9 l-43 -30 0 36 c0 42 -26 74 -59 74 -18 0 -23 -6
-23 -24 0 -43 -70 -163 -144 -248 -75 -87 -144 -148 -166 -148 -18 0 -8 18 68
132 98 146 102 156 88 198 -8 26 -17 36 -36 38 -25 2 -40 -8 -120 -82 l-35
-32 0 41 c0 23 -6 49 -14 58 -26 32 -56 19 -144 -64 -76 -70 -85 -76 -73 -47
17 39 14 80 -8 113 -18 28 -46 33 -46 10 0 -57 -161 -275 -203 -275 -18 0 -18
2 3 35 15 24 20 44 16 60 -8 32 -30 32 -62 0 -20 -20 -24 -31 -19 -59 6 -29 2
-37 -27 -65 -37 -35 -107 -73 -120 -65 -28 18 14 128 77 201 53 62 103 90 163
92 58 2 -15 81 -75 81 -74 0 -167 -77 -235 -196 -38 -65 -67 -96 -140 -146
-135 -92 -357 -109 -383 -28 -30 94 13 221 132 388 103 145 346 288 390 230 5
-7 10 -28 11 -46 4 -65 48 -140 75 -129 14 5 15 11 7 33 -9 22 -4 40 31 115
58 128 58 179 -3 239 -32 33 -36 34 -57 21z m2394 -363 c7 -7 -105 -197 -158
-268 -56 -75 -166 -189 -200 -206 -24 -13 -28 -13 -33 1 -8 21 6 52 68 149 60
93 70 139 38 179 -12 15 -28 27 -35 27 -7 0 -16 -12 -20 -27 -12 -56 -132
-208 -231 -293 -60 -52 -74 -58 -74 -33 0 30 42 109 149 283 55 91 102 170
104 175 6 16 377 29 392 13z m-792 -247 c-6 -22 -96 -116 -126 -133 -18 -9
-18 -7 3 23 13 19 43 58 68 87 43 51 65 61 55 23z m-504 -210 c-14 -22 -49
-45 -49 -32 0 9 47 51 56 51 2 0 -1 -8 -7 -19z"/>
<path d="M4428 3340 c-63 -42 -145 -132 -168 -184 -33 -73 -30 -136 6 -173 54
-54 152 -5 303 153 87 91 117 139 71 114 -11 -6 -20 -14 -20 -19 0 -17 -137
-145 -195 -183 -64 -42 -100 -46 -100 -13 0 14 15 28 48 46 64 35 148 109 171
151 14 25 17 45 12 71 -14 73 -55 85 -128 37z m57 -110 c-17 -33 -86 -105
-117 -121 -16 -9 -13 -1 13 36 55 77 100 126 110 120 5 -4 2 -19 -6 -35z"/>
<path d="M174 2706 c13 -30 235 -519 291 -640 24 -52 25 -61 14 -90 -7 -17
-82 -182 -165 -366 l-152 -335 1174 -3 c646 -1 1702 -1 2348 0 l1175 3 -154
340 c-85 187 -159 348 -165 357 -5 10 -10 22 -10 28 0 5 68 159 151 342 84
183 158 347 165 364 l13 32 -2349 0 -2349 0 13 -32z m4379 -110 c3 -8 3 -17 0
-20 -4 -3 -929 -6 -2058 -6 -2044 0 -2051 0 -2052 20 -2 20 4 20 2052 20 1752
0 2054 -2 2058 -14z m-2745 -233 c68 -34 77 -58 77 -208 0 -120 -2 -136 -21
-162 -33 -44 -75 -64 -138 -64 l-56 -1 -1 -52 c0 -28 -1 -91 0 -139 l0 -88
-57 3 -57 3 -2 345 c-1 190 0 354 2 365 4 19 11 20 111 18 78 -2 117 -8 142
-20z m448 6 c68 -21 93 -78 88 -201 -3 -79 -20 -129 -51 -147 -17 -10 -17 -12
3 -28 39 -32 47 -64 51 -188 2 -66 5 -128 7 -137 4 -15 -4 -18 -49 -18 -32 0
-57 5 -62 13 -4 6 -8 55 -9 107 -1 52 -3 105 -3 118 -1 34 -36 62 -76 62 -40
0 -35 24 -38 -190 l-2 -105 -55 0 -55 0 0 358 c-1 277 2 360 12 365 17 10 202
3 239 -9z m335 -4 c3 -61 4 -692 1 -702 -2 -7 -25 -12 -58 -12 l-54 0 0 364 0
364 23 3 c60 8 87 3 88 -17z m290 -1 c7 -20 7 -20 70 -249 23 -82 42 -151 44
-153 1 -1 2 84 3 190 0 106 1 202 1 213 1 18 7 20 51 17 l49 -4 0 -363 1 -364
-60 1 c-56 1 -61 3 -67 27 -22 93 -132 484 -133 476 -1 -5 -2 -121 -2 -257
l-1 -248 -51 0 -51 0 0 363 c0 276 3 363 12 367 7 3 38 4 70 4 46 -1 59 -5 64
-20z m647 17 c32 -1 32 -1 32 -51 l0 -50 -60 0 -60 0 0 -314 0 -315 -57 2 -58
2 0 310 0 310 -60 5 -60 5 0 45 c0 35 4 46 18 50 15 4 114 4 305 1z m-2530
-251 l19 -55 72 -5 72 -5 -56 -43 c-60 -47 -60 -46 -28 -136 7 -22 12 -41 10
-42 -2 -2 -28 15 -60 37 l-56 40 -61 -41 c-33 -22 -60 -39 -60 -38 0 2 9 32
20 68 l20 65 -23 20 c-12 11 -38 32 -57 45 l-35 25 74 5 75 5 20 63 c11 34 23
59 28 54 4 -4 16 -32 26 -62z m3162 -60 l74 -5 -57 -44 c-62 -47 -62 -45 -30
-135 7 -21 13 -40 13 -43 0 -2 -27 15 -60 37 l-61 41 -56 -40 c-32 -22 -58
-39 -60 -37 -2 1 3 20 10 42 32 90 32 89 -28 136 l-56 43 72 5 c70 5 73 6 82
35 5 17 16 46 24 65 l15 35 22 -65 23 -65 73 -5z m390 -607 c0 -7 1 -16 3 -20
3 -8 -4082 -10 -4096 -1 -6 3 -11 12 -13 20 -1 11 347 13 2052 13 1637 0 2054
-3 2054 -12z"/>
<path d="M1669 2241 c0 -22 0 -72 0 -111 0 -38 0 -77 0 -85 1 -11 12 -15 41
-15 60 0 73 26 69 139 -2 49 -7 93 -11 96 -4 4 -27 10 -53 12 l-45 6 -1 -42z"/>
<path d="M2119 2254 c-1 -39 -1 -165 0 -185 1 -23 80 -18 98 7 15 20 18 161 4
183 -5 7 -29 16 -55 18 -45 6 -46 5 -47 -23z"/>
<path d="M1250 1150 c1 -14 215 -153 323 -210 184 -96 444 -185 604 -205 26
-4 59 -9 73 -12 43 -10 422 -12 485 -3 87 12 134 20 185 32 25 5 54 11 65 14
134 26 388 130 551 225 68 40 223 153 218 159 -7 6 -2504 7 -2504 0z m481 -47
c1 -7 2 -19 3 -25 6 -37 -10 -44 -111 -43 -54 1 -103 -3 -110 -7 -6 -5 -14 -5
-17 0 -3 6 1 12 9 15 8 4 12 15 10 27 -8 42 1 45 110 45 78 0 105 -3 106 -12z
m440 7 c6 -35 5 -57 -2 -65 -4 -6 -51 -10 -111 -10 l-102 1 -1 29 c-1 17 2 35
6 40 8 10 208 15 210 5z m445 -28 c1 -18 -3 -35 -10 -39 -6 -4 -53 -8 -104 -8
-97 -1 -110 5 -106 45 1 8 2 20 3 25 1 6 43 10 108 10 l107 0 2 -33z m440 1
c0 -18 3 -35 7 -39 3 -4 52 -7 109 -8 l103 -1 2 -66 c2 -65 1 -65 -30 -78 -78
-31 -179 -63 -184 -58 -3 3 -6 50 -7 104 l-1 98 -105 0 -105 0 -3 41 -3 40
108 -1 108 0 1 -32z m442 -5 c2 -28 8 -38 20 -38 14 0 15 -2 2 -9 -8 -6 -19
-7 -25 -3 -5 4 -55 7 -110 7 l-100 0 -3 40 -3 40 108 0 108 0 3 -37z m-1547
-47 c5 -29 3 -201 -2 -201 -14 0 -194 63 -203 71 -5 4 -10 37 -11 72 l-1 65
108 0 c59 0 108 -3 109 -7z m444 -107 l1 -111 -114 1 c-103 1 -113 -1 -108
-16 5 -21 -2 -22 -75 -8 -74 14 -79 26 -11 24 89 -2 89 -2 87 120 l-1 104 110
-2 111 -1 0 -111z m441 1 l0 -110 77 1 c76 0 91 -9 32 -20 -98 -19 -105 -19
-105 -2 0 17 -5 18 -138 18 -40 0 -75 -2 -79 -5 -3 -4 -5 -18 -5 -32 l0 -26
-111 3 c-107 3 -110 4 -112 26 -1 13 3 26 9 30 6 4 56 7 111 7 l100 0 0 111 0
112 110 -2 110 -1 1 -110z"/>
<path d="M4544 1052 c-94 -127 -278 -316 -425 -433 -318 -256 -693 -435 -1094
-522 -193 -42 -339 -55 -575 -52 -244 4 -285 8 -505 50 -223 43 -513 152 -737
277 -291 162 -602 429 -782 671 -31 40 -43 46 -52 22 -8 -19 78 -127 206 -259
322 -333 717 -571 1165 -702 66 -19 136 -37 155 -40 19 -3 64 -12 100 -19 142
-31 257 -40 485 -40 241 0 310 7 587 60 15 3 82 21 148 40 515 148 982 460
1326 885 51 64 56 73 42 86 -14 14 -18 11 -44 -24z"/>
<path d="M3900 1002 c-24 -8 -40 -35 -33 -57 10 -34 62 -103 98 -131 71 -54
121 0 71 76 -29 44 -33 46 -58 26 -24 -18 -23 -25 7 -36 26 -10 43 -36 31 -47
-8 -8 -51 32 -87 81 -29 39 -40 71 -17 48 16 -16 45 -15 51 1 6 17 -42 46 -63
39z"/>
<path d="M1045 874 c-37 -48 -68 -94 -69 -103 -2 -31 30 -20 58 20 20 29 32
37 39 30 8 -8 1 -24 -21 -55 -27 -37 -29 -46 -17 -56 11 -9 26 4 82 75 86 110
88 114 67 122 -12 4 -25 -4 -43 -25 -14 -18 -32 -32 -38 -32 -19 0 -16 9 13
47 23 30 25 37 12 49 -13 13 -23 3 -83 -72z"/>
<path d="M3773 894 c-3 -8 3 -25 14 -37 45 -52 45 -59 -1 -24 -50 38 -72 42
-70 14 2 -19 122 -187 134 -187 24 0 18 25 -16 73 -21 28 -31 47 -23 41 8 -6
32 -24 55 -41 26 -21 45 -29 53 -23 15 9 13 12 -78 138 -47 65 -58 72 -68 46z"/>
<path d="M1187 753 c-57 -86 -63 -100 -49 -110 13 -11 25 2 82 85 46 68 64
101 57 110 -5 6 -13 12 -17 12 -5 0 -37 -44 -73 -97z"/>
<path d="M3623 804 c-7 -3 10 -41 48 -104 33 -55 63 -102 68 -104 4 -3 13 -1
21 4 11 7 4 24 -35 87 -27 43 -53 88 -59 100 -11 23 -20 26 -43 17z"/>
<path d="M1338 770 c-9 -6 -29 -31 -45 -58 -56 -91 -62 -147 -18 -158 31 -8
59 9 83 51 l21 35 -21 14 c-25 18 -56 3 -39 -18 11 -13 -9 -46 -28 -46 -17 0
-6 33 33 98 33 55 61 71 50 27 -5 -20 -3 -25 14 -25 26 0 36 48 15 73 -18 19
-40 21 -65 7z"/>
<path d="M3513 737 c-43 -23 -46 -41 -8 -48 13 -3 35 -32 64 -87 24 -45 47
-82 50 -82 3 0 12 4 19 9 14 8 14 9 -59 137 -24 43 -27 53 -14 58 8 3 12 12 9
21 -8 19 -10 19 -61 -8z"/>
<path d="M1439 603 c-38 -81 -47 -108 -37 -115 19 -11 28 -10 28 5 0 6 12 30
25 51 32 52 45 26 17 -33 -17 -34 -18 -42 -6 -52 8 -7 16 -10 18 -8 2 2 27 51
56 108 40 81 49 106 38 112 -21 14 -24 11 -43 -31 -10 -22 -22 -40 -26 -40
-19 0 -18 22 0 59 18 34 19 40 5 45 -9 3 -18 6 -20 6 -3 0 -27 -48 -55 -107z"/>
<path d="M3402 681 c-10 -6 -8 -18 8 -57 l20 -49 -37 41 c-27 29 -43 40 -55
35 -16 -5 -12 -19 32 -115 27 -60 51 -110 53 -112 1 -2 9 1 17 6 12 7 12 13 1
37 -8 15 -20 44 -28 63 -12 31 -12 33 1 16 34 -43 77 -86 86 -86 21 0 16 21
-26 115 -51 113 -54 117 -72 106z"/>
<path d="M3233 612 c-9 -6 -1 -37 30 -120 23 -62 44 -112 47 -112 3 0 11 4 18
9 10 6 4 32 -29 119 -23 62 -44 112 -48 112 -3 0 -11 -4 -18 -8z"/>
<path d="M1747 572 c-22 -24 -46 -84 -56 -138 -7 -36 -5 -49 8 -64 20 -24 73
-31 76 -10 2 8 13 36 24 62 28 61 38 133 21 153 -17 20 -53 19 -73 -3z m28
-102 c-9 -31 -25 -62 -35 -68 -15 -9 -17 -8 -13 11 11 49 36 123 47 136 19 25
20 -17 1 -79z"/>
<path d="M3082 563 c-16 -3 -21 -10 -18 -21 2 -9 18 -63 35 -119 27 -87 34
-100 50 -96 17 4 18 8 5 51 -20 66 -12 73 16 13 25 -54 27 -56 48 -42 11 6 9
16 -9 47 -12 21 -23 59 -26 84 -7 79 -29 97 -101 83z m55 -46 c7 -14 8 -30 3
-38 -11 -17 -16 -12 -25 29 -8 37 7 43 22 9z"/>
<path d="M1907 543 c-2 -5 -15 -52 -28 -105 -22 -95 -22 -98 -4 -118 19 -21
50 -26 74 -11 12 8 60 173 61 209 0 6 -8 12 -18 12 -15 0 -23 -19 -41 -95 -13
-52 -27 -98 -32 -101 -19 -12 -18 24 4 114 13 51 21 95 18 97 -7 8 -29 6 -34
-2z"/>
<path d="M2924 523 c-20 -4 -21 -7 -12 -51 5 -26 11 -51 12 -57 2 -5 9 -38 16
-73 10 -49 16 -62 29 -60 17 4 19 22 9 73 -6 25 -3 33 15 40 28 13 35 76 12
111 -15 23 -32 27 -81 17z m56 -75 c0 -27 -19 -41 -21 -15 0 6 -2 21 -4 31 -2
11 -1 24 2 29 8 14 23 -14 23 -45z"/>
<path d="M2066 403 c-20 -60 -36 -114 -36 -120 0 -23 30 -14 40 12 13 34 36
32 36 -2 -1 -19 5 -29 17 -31 13 -3 17 4 18 30 0 18 1 69 3 113 2 79 -5 105
-29 105 -6 0 -28 -48 -49 -107z m44 -20 c0 -26 -3 -34 -11 -26 -9 9 -3 63 7
63 2 0 4 -17 4 -37z"/>
<path d="M2236 478 c-4 -11 -24 -221 -22 -224 1 -1 20 -5 44 -9 38 -6 42 -5
42 14 0 15 -6 21 -21 21 -21 0 -21 3 -14 92 3 51 7 97 8 102 3 15 -33 19 -37
4z"/>
<path d="M2648 482 c-23 -5 -23 -9 7 -75 13 -31 27 -80 30 -109 7 -61 7 -60
29 -52 15 6 17 15 12 54 -5 43 4 122 20 173 4 12 0 17 -14 17 -23 0 -32 -18
-33 -63 -1 -31 -1 -30 -17 13 -13 34 -22 45 -34 42z"/>
<path d="M2379 448 c0 -18 -2 -72 -5 -120 -2 -48 0 -89 4 -92 24 -14 33 17 38
127 5 113 4 117 -16 117 -16 0 -20 -7 -21 -32z"/>
<path d="M2480 458 c0 -10 7 -18 15 -18 11 0 15 -12 16 -42 3 -137 5 -154 17
-161 23 -15 27 1 24 104 -2 80 0 99 12 99 16 0 29 27 17 34 -5 3 -29 5 -55 3
-37 -1 -46 -5 -46 -19z"/>
</g>
</svg>
